<?xml version="1.0" encoding="UTF-8" standalone="no"?>
<!DOCTYPE svg PUBLIC "-//W3C//DTD SVG 1.1//EN"
 "http://www.w3.org/Graphics/SVG/1.1/DTD/svg11.dtd">
<!-- Generated by graphviz version 2.36.0 (20140111.2315)
 -->
<!-- Title: models_diagram Pages: 1 -->
<svg width="377pt" height="706pt"
 viewBox="0.00 0.00 377.00 706.00" xmlns="http://www.w3.org/2000/svg" xmlns:xlink="http://www.w3.org/1999/xlink">
<g id="graph0" class="graph" transform="scale(1 1) rotate(0) translate(4 702)">
<title>models_diagram</title>
<polygon fill="white" stroke="none" points="-4,4 -4,-702 373,-702 373,4 -4,4"/>
<!-- Comment -->
<g id="node1" class="node"><title>Comment</title>
<path fill="none" stroke="black" d="M11.1016,-139C11.1016,-139 148.898,-139 148.898,-139 154.898,-139 160.898,-145 160.898,-151 160.898,-151 160.898,-255 160.898,-255 160.898,-261 154.898,-267 148.898,-267 148.898,-267 11.1016,-267 11.1016,-267 5.10156,-267 -0.898438,-261 -0.898438,-255 -0.898438,-255 -0.898438,-151 -0.898438,-151 -0.898438,-145 5.10156,-139 11.1016,-139"/>
<text text-anchor="middle" x="80" y="-251.8" font-family="Times,serif" font-size="14.00">Comment</text>
<polyline fill="none" stroke="black" points="-0.898438,-245 160.898,-245 "/>
<text text-anchor="start" x="7.10156" y="-229.8" font-family="Times,serif" font-size="14.00">id :integer</text>
<text text-anchor="start" x="7.10156" y="-215.8" font-family="Times,serif" font-size="14.00">content :text</text>
<text text-anchor="start" x="7.10156" y="-201.8" font-family="Times,serif" font-size="14.00">commentable_id :integer</text>
<text text-anchor="start" x="7.10156" y="-187.8" font-family="Times,serif" font-size="14.00">commentable_type :string</text>
<text text-anchor="start" x="7.10156" y="-173.8" font-family="Times,serif" font-size="14.00">user_id :integer</text>
<text text-anchor="start" x="7.10156" y="-159.8" font-family="Times,serif" font-size="14.00">created_at :datetime</text>
<text text-anchor="start" x="7.10156" y="-145.8" font-family="Times,serif" font-size="14.00">updated_at :datetime</text>
</g>
<!-- Comment&#45;&gt;Comment -->
<g id="edge1" class="edge"><title>Comment&#45;&gt;Comment</title>
<path fill="none" stroke="#456a94" d="M168.047,-223.807C174.229,-219.065 178,-212.129 178,-203 178,-194.822 174.974,-188.404 169.899,-183.746"/>
<ellipse fill="none" stroke="#456a94" cx="164.574" cy="-225.816" rx="4.00002" ry="4.00002"/>
<polygon fill="#456a94" stroke="#456a94" points="169.559,-183.531 163.519,-174.379 165.335,-180.856 161.111,-178.181 161.111,-178.181 161.111,-178.181 165.335,-180.856 158.703,-181.983 169.559,-183.531 169.559,-183.531"/>
</g>
<!-- Link -->
<g id="node2" class="node"><title>Link</title>
<path fill="none" stroke="black" d="M152.495,-305C152.495,-305 261.505,-305 261.505,-305 267.505,-305 273.505,-311 273.505,-317 273.505,-317 273.505,-435 273.505,-435 273.505,-441 267.505,-447 261.505,-447 261.505,-447 152.495,-447 152.495,-447 146.495,-447 140.495,-441 140.495,-435 140.495,-435 140.495,-317 140.495,-317 140.495,-311 146.495,-305 152.495,-305"/>
<text text-anchor="middle" x="207" y="-431.8" font-family="Times,serif" font-size="14.00">Link</text>
<polyline fill="none" stroke="black" points="140.495,-425 273.505,-425 "/>
<text text-anchor="start" x="148.495" y="-409.8" font-family="Times,serif" font-size="14.00">id :integer</text>
<text text-anchor="start" x="148.495" y="-395.8" font-family="Times,serif" font-size="14.00">title :string</text>
<text text-anchor="start" x="148.495" y="-381.8" font-family="Times,serif" font-size="14.00">url :string</text>
<text text-anchor="start" x="148.495" y="-367.8" font-family="Times,serif" font-size="14.00">user_id :integer</text>
<text text-anchor="start" x="148.495" y="-353.8" font-family="Times,serif" font-size="14.00">created_at :datetime</text>
<text text-anchor="start" x="148.495" y="-339.8" font-family="Times,serif" font-size="14.00">updated_at :datetime</text>
<text text-anchor="start" x="148.495" y="-325.8" font-family="Times,serif" font-size="14.00">upvotes :integer</text>
<text text-anchor="start" x="148.495" y="-311.8" font-family="Times,serif" font-size="14.00">downvotes :integer</text>
</g>
<!-- Link&#45;&gt;Comment -->
<g id="edge4" class="edge"><title>Link&#45;&gt;Comment</title>
<path fill="none" stroke="#6c19d8" d="M150.148,-298.451C144.426,-290.747 138.632,-282.945 132.953,-275.298"/>
<ellipse fill="none" stroke="#6c19d8" cx="152.593" cy="-301.743" rx="4.00002" ry="4.00002"/>
<polygon fill="#6c19d8" stroke="#6c19d8" points="132.807,-275.103 130.457,-264.391 129.826,-271.089 126.845,-267.074 126.845,-267.074 126.845,-267.074 129.826,-271.089 123.232,-269.758 132.807,-275.103 132.807,-275.103"/>
</g>
<!-- LinkTag -->
<g id="node3" class="node"><title>LinkTag</title>
<path fill="none" stroke="black" d="M199.495,-1C199.495,-1 308.505,-1 308.505,-1 314.505,-1 320.505,-7 320.505,-13 320.505,-13 320.505,-89 320.505,-89 320.505,-95 314.505,-101 308.505,-101 308.505,-101 199.495,-101 199.495,-101 193.495,-101 187.495,-95 187.495,-89 187.495,-89 187.495,-13 187.495,-13 187.495,-7 193.495,-1 199.495,-1"/>
<text text-anchor="middle" x="254" y="-85.8" font-family="Times,serif" font-size="14.00">LinkTag</text>
<polyline fill="none" stroke="black" points="187.495,-79 320.505,-79 "/>
<text text-anchor="start" x="195.495" y="-63.8" font-family="Times,serif" font-size="14.00">id :integer</text>
<text text-anchor="start" x="195.495" y="-49.8" font-family="Times,serif" font-size="14.00">link_id :integer</text>
<text text-anchor="start" x="195.495" y="-35.8" font-family="Times,serif" font-size="14.00">tag_id :integer</text>
<text text-anchor="start" x="195.495" y="-21.8" font-family="Times,serif" font-size="14.00">created_at :datetime</text>
<text text-anchor="start" x="195.495" y="-7.8" font-family="Times,serif" font-size="14.00">updated_at :datetime</text>
</g>
<!-- Link&#45;&gt;LinkTag -->
<g id="edge2" class="edge"><title>Link&#45;&gt;LinkTag</title>
<path fill="none" stroke="#30f2eb" d="M208.667,-296.699C210.797,-250.209 215.539,-190.312 226,-138 227.786,-129.067 230.201,-119.766 232.868,-110.723"/>
<ellipse fill="none" stroke="#30f2eb" cx="208.484" cy="-300.928" rx="4" ry="4"/>
<polygon fill="#30f2eb" stroke="#30f2eb" points="232.905,-110.6 240.144,-102.362 234.374,-105.82 235.842,-101.041 235.842,-101.041 235.842,-101.041 234.374,-105.82 231.541,-99.7194 232.905,-110.6 232.905,-110.6"/>
</g>
<!-- Tag -->
<g id="node4" class="node"><title>Tag</title>
<path fill="none" stroke="black" d="M247.495,-153C247.495,-153 356.505,-153 356.505,-153 362.505,-153 368.505,-159 368.505,-165 368.505,-165 368.505,-241 368.505,-241 368.505,-247 362.505,-253 356.505,-253 356.505,-253 247.495,-253 247.495,-253 241.495,-253 235.495,-247 235.495,-241 235.495,-241 235.495,-165 235.495,-165 235.495,-159 241.495,-153 247.495,-153"/>
<text text-anchor="middle" x="302" y="-237.8" font-family="Times,serif" font-size="14.00">Tag</text>
<polyline fill="none" stroke="black" points="235.495,-231 368.505,-231 "/>
<text text-anchor="start" x="243.495" y="-215.8" font-family="Times,serif" font-size="14.00">id :integer</text>
<text text-anchor="start" x="243.495" y="-201.8" font-family="Times,serif" font-size="14.00">name :string</text>
<text text-anchor="start" x="243.495" y="-187.8" font-family="Times,serif" font-size="14.00">user_id :integer</text>
<text text-anchor="start" x="243.495" y="-173.8" font-family="Times,serif" font-size="14.00">created_at :datetime</text>
<text text-anchor="start" x="243.495" y="-159.8" font-family="Times,serif" font-size="14.00">updated_at :datetime</text>
</g>
<!-- Link&#45;&gt;Tag -->
<g id="edge3" class="edge"><title>Link&#45;&gt;Tag</title>
<path fill="none" stroke="#49d3c3" d="M250.943,-295.903C257.286,-284.485 263.714,-272.915 269.771,-262.011"/>
<polygon fill="#49d3c3" stroke="#49d3c3" points="250.771,-296.213 241.981,-302.769 248.342,-300.584 245.914,-304.954 245.914,-304.954 245.914,-304.954 248.342,-300.584 249.848,-307.14 250.771,-296.213 250.771,-296.213"/>
<polygon fill="#49d3c3" stroke="#49d3c3" points="269.906,-261.769 278.696,-255.213 272.334,-257.398 274.762,-253.028 274.762,-253.028 274.762,-253.028 272.334,-257.398 270.829,-250.842 269.906,-261.769 269.906,-261.769"/>
</g>
<!-- Tag&#45;&gt;LinkTag -->
<g id="edge5" class="edge"><title>Tag&#45;&gt;LinkTag</title>
<path fill="none" stroke="#03514a" d="M283.756,-144.988C280.189,-133.84 276.441,-122.129 272.854,-110.92"/>
<ellipse fill="none" stroke="#03514a" cx="285.064" cy="-149.075" rx="4.00001" ry="4.00001"/>
<polygon fill="#03514a" stroke="#03514a" points="272.8,-110.75 274.038,-99.8544 271.276,-105.988 269.752,-101.226 269.752,-101.226 269.752,-101.226 271.276,-105.988 265.466,-102.597 272.8,-110.75 272.8,-110.75"/>
</g>
<!-- User -->
<g id="node5" class="node"><title>User</title>
<path fill="none" stroke="black" d="M163.722,-485C163.722,-485 344.278,-485 344.278,-485 350.278,-485 356.278,-491 356.278,-497 356.278,-497 356.278,-685 356.278,-685 356.278,-691 350.278,-697 344.278,-697 344.278,-697 163.722,-697 163.722,-697 157.722,-697 151.722,-691 151.722,-685 151.722,-685 151.722,-497 151.722,-497 151.722,-491 157.722,-485 163.722,-485"/>
<text text-anchor="middle" x="254" y="-681.8" font-family="Times,serif" font-size="14.00">User</text>
<polyline fill="none" stroke="black" points="151.722,-675 356.278,-675 "/>
<text text-anchor="start" x="159.722" y="-659.8" font-family="Times,serif" font-size="14.00">id :integer</text>
<text text-anchor="start" x="159.722" y="-645.8" font-family="Times,serif" font-size="14.00">email :string</text>
<text text-anchor="start" x="159.722" y="-631.8" font-family="Times,serif" font-size="14.00">encrypted_password :string</text>
<text text-anchor="start" x="159.722" y="-617.8" font-family="Times,serif" font-size="14.00">reset_password_token :string</text>
<text text-anchor="start" x="159.722" y="-603.8" font-family="Times,serif" font-size="14.00">reset_password_sent_at :datetime</text>
<text text-anchor="start" x="159.722" y="-589.8" font-family="Times,serif" font-size="14.00">remember_created_at :datetime</text>
<text text-anchor="start" x="159.722" y="-575.8" font-family="Times,serif" font-size="14.00">sign_in_count :integer</text>
<text text-anchor="start" x="159.722" y="-561.8" font-family="Times,serif" font-size="14.00">current_sign_in_at :datetime</text>
<text text-anchor="start" x="159.722" y="-547.8" font-family="Times,serif" font-size="14.00">last_sign_in_at :datetime</text>
<text text-anchor="start" x="159.722" y="-533.8" font-family="Times,serif" font-size="14.00">current_sign_in_ip :string</text>
<text text-anchor="start" x="159.722" y="-519.8" font-family="Times,serif" font-size="14.00">last_sign_in_ip :string</text>
<text text-anchor="start" x="159.722" y="-505.8" font-family="Times,serif" font-size="14.00">created_at :datetime</text>
<text text-anchor="start" x="159.722" y="-491.8" font-family="Times,serif" font-size="14.00">updated_at :datetime</text>
</g>
<!-- User&#45;&gt;Link -->
<g id="edge6" class="edge"><title>User&#45;&gt;Link</title>
<path fill="none" stroke="#090543" d="M228.991,-476.66C227.532,-470.051 226.082,-463.476 224.661,-457.04"/>
<ellipse fill="none" stroke="#090543" cx="229.913" cy="-480.842" rx="4.00001" ry="4.00001"/>
<polygon fill="#090543" stroke="#090543" points="224.613,-456.818 226.852,-446.083 223.535,-451.936 222.458,-447.053 222.458,-447.053 222.458,-447.053 223.535,-451.936 218.063,-448.023 224.613,-456.818 224.613,-456.818"/>
</g>
<!-- User&#45;&gt;Tag -->
<g id="edge7" class="edge"><title>User&#45;&gt;Tag</title>
<path fill="none" stroke="#771581" d="M277.536,-476.645C279.183,-466.979 280.702,-457.333 282,-448 290.721,-385.313 296.063,-312.997 299.007,-263.463"/>
<ellipse fill="none" stroke="#771581" cx="276.81" cy="-480.823" rx="4.00001" ry="4.00001"/>
<polygon fill="#771581" stroke="#771581" points="299.02,-263.234 304.091,-253.511 299.31,-258.243 299.599,-253.251 299.599,-253.251 299.599,-253.251 299.31,-258.243 295.107,-252.99 299.02,-263.234 299.02,-263.234"/>
</g>
</g>
</svg>
